<svg width="100" height="100" viewBox="0 0 100 100" fill="none" xmlns="http://www.w3.org/2000/svg">
<g clip-path="url(#clip0_1352_8584)">
<path d="M100 0H0V100H100V0Z" fill="#BF1B2C"/>
<mask id="mask0_1352_8584" style="mask-type:luminance" maskUnits="userSpaceOnUse" x="0" y="0" width="100" height="100">
<path d="M100 0H0V100H100V0Z" fill="white"/>
</mask>
<g mask="url(#mask0_1352_8584)">
<path d="M12.795 40.7556C13.43 42.8405 13.8286 43.8283 15.4196 43.345C17.0036 42.8617 16.8519 41.7963 16.2239 39.7114L15.6454 37.81L14.3084 38.2157L15.1445 41.0096C15.3173 41.6446 15.3949 42.0221 15.0422 42.1244C14.7141 42.2232 14.5836 41.821 14.4142 41.2107L11.8178 32.5502C11.6661 31.9893 11.4898 31.5554 11.8637 31.4601C12.2694 31.3296 12.3964 31.8129 12.5445 32.3456L13.1231 34.3281L14.4883 33.9225L14.1602 32.8536C13.5535 30.7722 13.1019 29.7527 11.5144 30.236C9.92698 30.7193 10.1281 31.7882 10.756 33.8978L12.795 40.7556Z" fill="white"/>
<path d="M26.2779 40.4029L26.0028 39.1858L24.6164 39.4857L23.4028 33.9013L24.6869 33.6191L24.4329 32.402L23.1277 32.6772L22.3198 28.9202L23.7062 28.6168L23.4522 27.3997L20.7112 28.01L23.5263 40.9849L26.2779 40.4029Z" fill="white"/>
<path d="M34.1341 39.0059C35.6969 38.7766 36.0708 38.2439 35.8486 36.54L35.3477 33.0123C35.2242 32.1727 34.9949 31.4354 34.3387 31.2837C34.9173 30.9556 34.8961 30.4723 34.7938 29.6327L34.5186 27.7525C34.2646 26.0486 33.7884 25.6182 32.2009 25.8475L30.8145 26.0486L32.6772 39.2069L34.1377 39.0059H34.1341ZM33.9577 33.0123L34.4869 36.7199C34.6104 37.5842 34.3846 37.7112 33.9577 37.7606L33.859 37.7853L33.0546 32.1727L33.231 32.148C33.6826 32.0951 33.859 32.2468 33.9577 33.0123ZM32.5008 27.0681C32.9241 26.994 33.0546 27.1951 33.1534 27.9571C33.1534 27.9571 33.4568 29.862 33.4286 29.8338C33.5521 30.624 33.4286 30.8004 33.0017 30.8498L32.8783 30.871L32.3491 27.0893L32.5043 27.0646L32.5008 27.0681Z" fill="white"/>
<path d="M45.5992 37.8876L45.5251 36.6423L44.0858 36.7199L43.7859 31.0333L45.0912 30.9557L45.0453 29.7104L43.7083 29.788L43.4826 25.9498L44.9219 25.8511L44.8443 24.6058L42.0468 24.7822L42.8017 38.0393L45.5992 37.8876Z" fill="white"/>
<path d="M53.7341 31.0826H54.0622C55.4486 31.132 55.9001 30.3947 55.953 28.8743L56.0271 26.8917C56.1012 25.1667 55.6708 24.6587 54.0586 24.6058L52.5982 24.5529L52.0972 37.8347L53.4836 37.8876L53.7306 31.0791L53.7341 31.0826ZM53.9105 25.8511H54.0622C54.5419 25.8757 54.6936 26.1544 54.6407 26.9446L54.5913 28.8214C54.5419 29.6328 54.3655 29.788 53.9352 29.788L53.7835 29.7598L53.9069 25.8511H53.9105Z" fill="white"/>
<path d="M64.3419 31.8199L65.1215 31.9187L64.2149 38.8013L65.5766 38.9812L67.2875 25.7946L65.9258 25.6218L65.2732 30.6734L64.5218 30.5747L65.1709 25.5194L63.8163 25.3395L62.0948 38.5191L63.4564 38.699L64.3419 31.8199Z" fill="white"/>
<path d="M74.1172 37.9158L74.8474 38.0675L74.2689 40.6322L75.6271 40.9638L76.1562 38.5755C77.1898 33.9789 77.7931 30.423 77.5426 27.756L76.0821 27.4279C74.7204 29.7139 73.7644 33.1675 72.7026 37.7888L72.1734 40.1771L73.5351 40.4805L74.1172 37.9158ZM76.4067 29.534C76.2585 31.5624 75.7576 33.9013 75.1261 36.8752L74.3924 36.6952C75.0979 33.6967 75.68 31.3613 76.4067 29.534Z" fill="white"/>
<path d="M83.2328 43.1968L85.9844 36.9492L86.2878 37.048L84.0724 43.4755L85.3565 43.9341L89.7132 31.386L88.355 30.9063C86.8416 30.3736 86.2419 30.677 85.6846 32.3032L85.0002 34.2329C84.6509 35.2489 84.471 35.8345 84.852 36.2402L81.9311 42.7135L83.2363 43.1968H83.2328ZM86.309 34.688L86.9157 32.8853C87.1697 32.148 87.3955 31.9223 87.847 32.0704L87.9987 32.1233L86.6864 35.958L86.51 35.8803C86.055 35.7287 86.0338 35.4217 86.3054 34.688" fill="white"/>
<path d="M25.4242 48.7071L24.4364 43.8036L23.0994 44.0858L25.6994 57.1136L27.0399 56.8349L25.6994 50.1041C25.777 50.0018 25.8722 49.8536 25.9251 49.6984C26.5072 50.9437 26.9588 52.9968 27.816 56.6832L29.153 56.4257C28.2428 52.263 27.6678 49.6455 26.8882 48.4037C27.1351 47.0561 26.9835 45.4545 26.6307 43.7295L26.5566 43.3732L25.1702 43.6554C25.6006 46.0684 25.7981 47.5147 25.4277 48.7071" fill="white"/>
<path d="M34.06 55.6884L35.4217 55.4873L35.1148 53.0744C34.4869 48.4002 33.8343 44.8725 32.6737 42.4595L31.192 42.6641C30.684 45.3064 30.9874 48.8588 31.6153 53.5612L31.9187 55.9742L33.3051 55.7978L32.9523 53.1802L33.7073 53.0814L34.06 55.6919V55.6884ZM32.7971 51.9349C32.4232 48.8835 32.1445 46.4987 32.1939 44.5197C32.7724 46.4776 33.1005 48.8623 33.5274 51.8362L32.7971 51.9385V51.9349Z" fill="white"/>
<path d="M39.7291 55.0817L39.1999 48.2767L39.5527 48.2485C40.9144 48.1462 41.2672 47.3595 41.1649 45.8355L41.0132 43.8565C40.865 42.1279 40.3852 41.6975 38.7978 41.8245L37.3373 41.9268L38.3674 55.184L39.7291 55.0852V55.0817ZM38.9212 43.0416C39.401 43.0169 39.5774 43.2956 39.6515 44.0576L39.7749 45.9625C39.8561 46.7492 39.7009 46.9291 39.2458 46.9785H39.0941L38.7942 43.0663L38.9177 43.0416H38.9212Z" fill="white"/>
<path d="M44.2375 44.4632L44.4421 51.8291C44.4915 53.9881 44.6926 54.9547 46.3083 54.9017C47.8922 54.8735 48.0686 53.8822 47.9945 51.6986L47.8181 44.3609C47.7405 42.1773 47.5147 41.186 45.9273 41.2389C44.3151 41.2636 44.1669 42.2831 44.241 44.4632M45.9802 42.5089C46.3576 42.4877 46.3859 42.8652 46.4106 43.6272L46.6328 52.4641C46.6575 53.2755 46.6575 53.6071 46.2836 53.6353C45.9061 53.6353 45.9061 53.279 45.8814 52.4888L45.6556 43.6272C45.6309 42.8405 45.6062 42.5089 45.9802 42.5089Z" fill="white"/>
<path d="M52.4006 51.5998C52.4782 48.0439 52.6017 45.2499 52.9827 42.9675C53.2578 45.3028 53.2331 48.0968 53.1555 51.6527L53.0568 54.7254L54.4678 54.75L54.5666 50.739C54.6407 47.363 54.7183 44.3856 53.7835 41.4435L52.2489 41.3941C51.1624 44.2904 51.1165 47.2607 51.0177 50.6403L50.9119 54.676L52.323 54.6971L52.4006 51.5998Z" fill="white"/>
<path d="M59.2267 49.7724C59.3784 47.7652 59.576 46.0648 60.539 44.6185C60.3591 45.5074 60.285 46.4705 60.2074 47.3101L59.5548 55.1063L60.9165 55.2051L62.0277 41.9762L60.9412 41.8704C60.4932 42.5054 60.0064 43.3485 59.6042 44.1352L59.9076 41.7963L58.5212 41.6658L57.417 54.9264L58.7752 55.0217L59.2303 49.7689L59.2267 49.7724Z" fill="white"/>
<path d="M66.0035 42.4595L63.9433 55.5896L65.3014 55.7942L66.3809 48.9364L67.1359 49.0599L66.0529 55.9177L67.4181 56.147L69.4783 43.0169L68.1201 42.7911L67.3369 47.8181L66.5573 47.7158L67.3687 42.6641L66.0035 42.4595Z" fill="white"/>
<path d="M72.3004 54.549L73.0377 54.7254L72.378 57.2653L73.7397 57.6216L74.343 55.258C75.5318 50.7143 76.2373 47.1866 76.0574 44.4915L74.6217 44.1105C73.1577 46.3682 72.0993 49.8007 70.9176 54.3726L70.3108 56.7362L71.6513 57.0889L72.3004 54.5525V54.549ZM74.8474 46.2447C74.6463 48.2802 74.0643 50.5874 73.3623 53.533L72.632 53.3284C73.4363 50.358 74.0678 48.0474 74.8474 46.2412" fill="white"/>
<path d="M15.4902 47.236C15.4902 47.236 15.4408 47.236 15.4902 47.363C15.5149 47.5147 15.5431 47.5923 15.5925 47.6911C16.4497 50.3581 17.2611 53.0003 18.1395 55.6673C18.6439 57.2688 19.1449 58.8704 19.6493 60.4967C19.8257 61.0541 19.981 61.5868 20.1503 62.1441C20.7817 64.1514 21.4132 66.1587 22.0411 68.1624C22.1187 68.1624 22.1434 68.0883 22.1964 68.0389C22.4186 67.732 22.7008 67.4286 22.976 67.1746C23.551 66.4409 24.3341 65.9294 25.0891 65.4461C25.6958 65.0651 26.352 64.7088 27.0293 64.483C30.3524 63.0366 33.9084 62.2994 37.4855 61.7173C38.7484 61.5374 40.0078 61.361 41.2883 61.2587C41.5141 61.1811 41.7963 61.2305 42.0221 61.1811C42.2479 61.1035 42.4983 61.1811 42.7276 61.1035C42.9534 61.0541 43.1827 61.0823 43.4085 61.0823C43.7859 60.98 44.1634 61.0576 44.5444 60.98C44.9219 60.9341 45.324 60.98 45.705 60.9341C46.1566 60.8812 46.6081 60.9094 47.0879 60.8812C47.3172 60.8318 47.5465 60.9094 47.7687 60.8318H51.6245C52.2807 60.8318 52.9086 60.9094 53.5401 60.9094C53.914 60.9588 54.3162 60.9588 54.6972 60.9588C54.9511 60.98 55.2016 61.0329 55.4556 61.0329C55.7837 61.0082 56.1118 61.1105 56.4363 61.0858C56.6656 61.0611 56.8879 61.1634 57.1136 61.1634C57.4205 61.1352 57.7204 61.2375 58.0203 61.2093C58.3236 61.2904 58.6235 61.234 58.9269 61.3363C59.0786 61.3645 59.2303 61.3151 59.382 61.3645C59.5583 61.4386 59.7594 61.3645 59.9358 61.4386C60.0875 61.488 60.2639 61.4386 60.412 61.488C64.9734 62.0947 69.5594 63.0366 73.768 64.9945C75.179 65.7036 76.5619 66.5397 77.6202 67.732C77.7225 67.6544 77.6696 67.5027 77.7472 67.4286C78.4986 65.0157 79.2535 62.6063 80.0085 60.1898C80.6399 58.2601 81.2467 56.3552 81.8252 54.4255C82.559 52.1642 83.2575 49.9277 83.963 47.6699C83.9877 47.6452 84.016 47.4653 84.0653 47.363C84.0936 47.2854 84.016 47.236 84.016 47.236C83.8113 47.1337 83.5609 47.1055 83.3351 47.0067C83.2857 46.9538 83.2116 46.9785 83.2116 47.0314C82.7848 47.9451 82.3579 48.8588 81.9275 49.7725C81.6489 50.2558 81.476 50.7884 81.1938 51.2682C80.266 53.2261 79.3841 55.2051 78.4492 57.163C77.8954 58.3554 77.3133 59.5266 76.8088 60.7189C76.5584 61.174 76.3291 61.6573 76.1315 62.1371C76.1068 62.1618 76.0821 62.1935 76.0539 62.2147C73.8914 60.8671 71.4467 60.084 69.0267 59.4207C65.0721 58.3801 60.9871 57.7451 56.8808 57.4135C56.3552 57.3606 55.819 57.3359 55.2969 57.283C54.9688 57.283 54.6654 57.2618 54.3655 57.2089C53.9352 57.2089 53.5048 57.2089 53.1062 57.1595C52.3724 57.1595 51.6492 57.1348 50.9401 57.1066C49.6807 57.1313 48.4214 57.0819 47.1902 57.1313C46.7351 57.156 46.28 57.156 45.8285 57.156C45.3769 57.2053 44.9254 57.2053 44.495 57.2053C44.0646 57.2794 43.6378 57.23 43.2074 57.3076C40.2865 57.484 37.3902 57.8156 34.5151 58.3483C32.7548 58.6764 30.9909 59.0609 29.2518 59.5654C27.2339 60.1757 25.2161 60.8883 23.4522 62.0806H23.4028C22.9513 61.0682 22.4186 60.0769 21.9917 59.0362C21.5437 58.119 21.138 57.1806 20.6865 56.2458C20.4819 55.759 20.182 55.3039 20.0056 54.7712C19.3989 53.5048 18.8203 52.2066 18.1889 50.9366C17.9631 50.351 17.6632 49.8183 17.4339 49.2609C17.0565 48.499 16.7319 47.7405 16.3509 46.9785C16.3016 46.9009 15.7689 47.1302 15.4937 47.2325" fill="white"/>
<path d="M75.7047 68.2859C75.6341 68.106 75.6059 67.8555 75.5036 67.7532C75.4542 67.8555 75.4295 67.9825 75.3801 68.1095C75.0803 68.9491 74.4206 69.5841 73.7468 70.1415C73.1647 70.6248 72.5121 71.034 71.8312 71.4114C71.5808 71.5384 71.3268 71.7184 71.0516 71.8171C69.4606 72.5756 67.852 73.1612 66.1869 73.641C63.721 74.35 61.1493 74.8651 58.6059 75.1967C58.4295 75.2672 58.2284 75.1967 58.0767 75.2672C57.9003 75.3201 57.6957 75.2672 57.544 75.3201C57.3958 75.3695 57.2195 75.3484 57.0678 75.3695C56.7926 75.4471 56.461 75.3977 56.1858 75.4683C55.9636 75.4683 55.7061 75.4683 55.4803 75.5459C55.2545 75.5459 55.0288 75.5459 54.7994 75.5706C54.4996 75.6447 54.1927 75.5706 53.8928 75.6447C53.5683 75.6729 53.212 75.6729 52.8839 75.6729C52.2807 75.747 51.681 75.7223 51.0742 75.747C49.2856 75.7964 47.5218 75.747 45.7332 75.6729C45.2993 75.6941 44.9007 75.5706 44.4491 75.5953C41.9798 75.4154 39.4821 75.112 37.0656 74.6322C36.1837 74.4559 35.3018 74.3006 34.4446 74.0219C32.4549 73.5175 30.5888 72.9072 28.7261 72.0676C27.5937 71.5878 26.5107 70.9246 25.5265 70.1873C24.8457 69.6264 24.1895 68.995 23.865 68.1554C23.8367 68.0813 23.8367 67.9014 23.7133 67.9014C23.6604 68.1554 23.558 68.3847 23.5863 68.6387C23.5087 68.8397 23.611 69.069 23.5863 69.2736C23.7627 70.2367 24.3906 71.0481 25.1208 71.6584C26.4543 72.8049 28.0418 73.5386 29.6539 74.1489C31.2661 74.731 32.8536 75.2143 34.4939 75.5741C37.5913 76.2832 40.8156 76.6889 44.0152 76.9182C44.9748 76.9711 45.9061 77.0452 46.8656 77.0452C47.0879 77.0981 47.3383 77.024 47.5676 77.0981H51.7268C52.4288 76.9923 53.1838 77.0699 53.8893 76.9923C54.1892 76.9464 54.4925 76.9923 54.7959 76.9464C55.9812 76.8688 57.1912 76.7665 58.3765 76.6148C61.8302 76.2303 65.2027 75.5953 68.5046 74.5546C69.4888 74.2512 70.4448 73.8702 71.3515 73.4399C72.5332 72.879 73.6692 72.2193 74.6005 71.3056C75.105 70.7694 75.5353 70.1097 75.7082 69.3971C75.7611 69.0443 75.7823 68.6634 75.7082 68.2788" fill="white"/>
</g>
</g>
<defs>
<clipPath id="clip0_1352_8584">
<path d="M0 0H100V96C100 98.2091 98.2091 100 96 100H4C1.79086 100 0 98.2091 0 96V0Z" fill="white"/>
</clipPath>
</defs>
</svg>
